<svg width="1131" height="414" viewBox="0 0 1131 414" fill="none" xmlns="http://www.w3.org/2000/svg">
<g clip-path="url(#clip0)">
<rect width="1131" height="414" fill="#F2F2F4"/>
<path d="M252.7 267L277.5 299.2L302.2 267H308.1L280.3 303L307.3 338H301.4L277.5 306.8L253.5 338H247.5L274.5 303L246.7 267H252.7ZM447.093 338V267H476.593C480.593 267 484.16 268.1 487.293 270.3C490.426 272.433 492.86 275.2 494.593 278.6C496.393 281.933 497.293 285.4 497.293 289C497.293 292.533 496.593 295.833 495.193 298.9C493.793 301.967 491.826 304.533 489.293 306.6C486.826 308.667 483.926 309.933 480.593 310.4L498.293 338H492.393L475.193 311.2H452.193V338H447.093ZM452.193 306.5H477.093C480.16 306.5 482.826 305.667 485.093 304C487.36 302.333 489.093 300.167 490.293 297.5C491.56 294.833 492.193 292 492.193 289C492.193 285.933 491.46 283.1 489.993 280.5C488.593 277.833 486.693 275.7 484.293 274.1C481.893 272.433 479.26 271.6 476.393 271.6H452.193V306.5ZM662.748 267H667.148L697.148 338H691.748L681.848 314.6H647.948L638.048 338H632.548L662.748 267ZM680.448 310.4L664.948 273.2L649.148 310.4H680.448ZM827.023 267L851.823 306.3L876.723 267H882.423L854.423 311.2V338H849.323V311L821.423 267H827.023Z" fill="#F04D4E"/>
<path d="M281.453 142.631L302.144 195.75H260.883L281.453 142.631ZM314.486 226H316.543L282.542 140.09H280.485L246.484 226H248.541L260.036 197.565H302.87L314.486 226ZM334.196 224.185C334.196 197.928 334.196 169.493 334.196 143.236H360.937C414.056 143.236 414.056 224.185 360.937 224.185H334.196ZM332.381 141.421C332.381 169.614 332.381 197.807 332.381 226H360.937C416.476 226 416.476 141.421 360.937 141.421H332.381ZM447.106 224.911L414.194 141.421H412.137L446.138 227.331H448.195L482.196 141.421H480.139L447.106 224.911ZM519.053 142.631L539.744 195.75H498.483L519.053 142.631ZM552.086 226H554.143L520.142 140.09H518.085L484.084 226H486.141L497.636 197.565H540.47L552.086 226ZM572.037 226V145.172L627.939 226H629.875V141.3H628.06V222.612L571.795 141.3L570.101 141.179V226H572.037ZM727.872 167.194C725.815 162.233 722.79 157.756 719.16 154.005C711.658 146.261 701.373 141.542 689.878 141.542C678.383 141.542 668.098 146.261 660.596 154.005C653.215 161.628 648.496 172.155 648.496 183.771C648.496 195.508 653.215 206.035 660.596 213.658C668.098 221.402 678.383 226.121 689.878 226.121C701.373 226.121 711.658 221.402 719.16 213.658C722.79 209.907 725.815 205.43 727.872 200.469H725.815C723.879 204.946 721.096 208.818 717.829 212.206C710.69 219.587 700.768 224.185 689.878 224.185C678.988 224.185 669.066 219.587 661.927 212.206C654.788 204.946 650.311 194.903 650.311 183.771C650.311 172.76 654.788 162.717 661.927 155.336C669.066 147.955 678.988 143.478 689.878 143.478C700.768 143.478 710.69 147.955 717.829 155.336C721.096 158.724 723.879 162.717 725.815 167.194H727.872ZM748.437 184.618H792.239V182.682H748.437V143.236H793.207V141.421H746.501V226H746.743H793.449V224.185H748.437V184.618ZM813.649 224.185C813.649 197.928 813.649 169.493 813.649 143.236H840.39C893.509 143.236 893.509 224.185 840.39 224.185H813.649ZM811.834 141.421C811.834 169.614 811.834 197.807 811.834 226H840.39C895.929 226 895.929 141.421 840.39 141.421H811.834Z" fill="black"/>
<g filter="url(#filter0_d)">
<rect x="343" y="54" width="446" height="47" rx="5" fill="#26303D"/>
<path d="M435.22 88V66.7H449.53V70.33H439.36V75.82H447.82V79.18H439.36V88H435.22ZM470.214 88.15C468.654 88.15 467.234 87.85 465.954 87.25C464.694 86.65 463.604 85.84 462.684 84.82C461.784 83.78 461.084 82.62 460.584 81.34C460.084 80.04 459.834 78.71 459.834 77.35C459.834 75.93 460.094 74.58 460.614 73.3C461.134 72 461.864 70.85 462.804 69.85C463.744 68.83 464.844 68.03 466.104 67.45C467.384 66.85 468.784 66.55 470.304 66.55C471.844 66.55 473.244 66.86 474.504 67.48C475.784 68.1 476.874 68.93 477.774 69.97C478.694 71.01 479.394 72.18 479.874 73.48C480.374 74.76 480.624 76.07 480.624 77.41C480.624 78.81 480.364 80.16 479.844 81.46C479.324 82.74 478.594 83.89 477.654 84.91C476.734 85.91 475.634 86.7 474.354 87.28C473.094 87.86 471.714 88.15 470.214 88.15ZM464.034 77.35C464.034 78.59 464.274 79.75 464.754 80.83C465.254 81.91 465.964 82.79 466.884 83.47C467.824 84.15 468.944 84.49 470.244 84.49C471.584 84.49 472.714 84.14 473.634 83.44C474.554 82.74 475.254 81.84 475.734 80.74C476.214 79.64 476.454 78.51 476.454 77.35C476.454 76.11 476.204 74.95 475.704 73.87C475.204 72.79 474.484 71.92 473.544 71.26C472.624 70.58 471.524 70.24 470.244 70.24C468.904 70.24 467.774 70.59 466.854 71.29C465.934 71.99 465.234 72.89 464.754 73.99C464.274 75.07 464.034 76.19 464.034 77.35ZM492.8 88V66.7H502.22C503.2 66.7 504.1 66.9 504.92 67.3C505.76 67.7 506.48 68.24 507.08 68.92C507.7 69.6 508.17 70.36 508.49 71.2C508.83 72.04 509 72.9 509 73.78C509 75.14 508.65 76.39 507.95 77.53C507.27 78.67 506.34 79.49 505.16 79.99L510.02 88H505.46L501.08 80.86H496.94V88H492.8ZM496.94 77.23H502.13C502.91 77.23 503.55 76.9 504.05 76.24C504.57 75.56 504.83 74.74 504.83 73.78C504.83 73.12 504.69 72.53 504.41 72.01C504.13 71.49 503.77 71.08 503.33 70.78C502.91 70.48 502.45 70.33 501.95 70.33H496.94V77.23ZM530.484 88.15C529.084 88.15 527.774 87.87 526.554 87.31C525.334 86.75 524.254 85.98 523.314 85C522.394 84 521.674 82.84 521.154 81.52C520.634 80.2 520.374 78.77 520.374 77.23C520.374 75.77 520.634 74.4 521.154 73.12C521.674 71.82 522.404 70.68 523.344 69.7C524.284 68.72 525.384 67.95 526.644 67.39C527.904 66.83 529.274 66.55 530.754 66.55C532.734 66.55 534.444 66.98 535.884 67.84C537.324 68.68 538.404 69.8 539.124 71.2L536.034 73.48C535.494 72.44 534.734 71.64 533.754 71.08C532.794 70.5 531.744 70.21 530.604 70.21C529.404 70.21 528.344 70.54 527.424 71.2C526.524 71.86 525.814 72.73 525.294 73.81C524.794 74.89 524.544 76.07 524.544 77.35C524.544 78.69 524.814 79.9 525.354 80.98C525.894 82.06 526.634 82.92 527.574 83.56C528.534 84.18 529.624 84.49 530.844 84.49C532.904 84.49 534.764 83.52 536.424 81.58V80.08H532.134V77.05H539.844V88H536.424V85.6C534.704 87.3 532.724 88.15 530.484 88.15ZM567.162 84.37V88H552.372V66.7H566.892V70.33H556.512V75.46H565.482V78.82H556.512V84.37H567.162ZM610.387 84.37V88H595.597V66.7H610.117V70.33H599.737V75.46H608.707V78.82H599.737V84.37H610.387ZM622.615 88V66.7H630.355C632.675 66.7 634.615 67.18 636.175 68.14C637.735 69.08 638.905 70.36 639.685 71.98C640.465 73.58 640.855 75.36 640.855 77.32C640.855 79.48 640.425 81.36 639.565 82.96C638.705 84.56 637.485 85.8 635.905 86.68C634.325 87.56 632.475 88 630.355 88H622.615ZM636.685 77.32C636.685 75.94 636.435 74.73 635.935 73.69C635.435 72.63 634.715 71.81 633.775 71.23C632.835 70.63 631.695 70.33 630.355 70.33H626.755V84.37H630.355C631.715 84.37 632.865 84.07 633.805 83.47C634.745 82.85 635.455 82.01 635.935 80.95C636.435 79.87 636.685 78.66 636.685 77.32ZM653.089 88V66.7H657.229V88H653.089ZM686.603 70.33H679.793V88H675.683V70.33H668.873V66.7H686.603V70.33ZM698.247 88V66.7H702.387V88H698.247ZM724.921 88.15C723.361 88.15 721.941 87.85 720.661 87.25C719.401 86.65 718.311 85.84 717.391 84.82C716.491 83.78 715.791 82.62 715.291 81.34C714.791 80.04 714.541 78.71 714.541 77.35C714.541 75.93 714.801 74.58 715.321 73.3C715.841 72 716.571 70.85 717.511 69.85C718.451 68.83 719.551 68.03 720.811 67.45C722.091 66.85 723.491 66.55 725.011 66.55C726.551 66.55 727.951 66.86 729.211 67.48C730.491 68.1 731.581 68.93 732.481 69.97C733.401 71.01 734.101 72.18 734.581 73.48C735.081 74.76 735.331 76.07 735.331 77.41C735.331 78.81 735.071 80.16 734.551 81.46C734.031 82.74 733.301 83.89 732.361 84.91C731.441 85.91 730.341 86.7 729.061 87.28C727.801 87.86 726.421 88.15 724.921 88.15ZM718.741 77.35C718.741 78.59 718.981 79.75 719.461 80.83C719.961 81.91 720.671 82.79 721.591 83.47C722.531 84.15 723.651 84.49 724.951 84.49C726.291 84.49 727.421 84.14 728.341 83.44C729.261 82.74 729.961 81.84 730.441 80.74C730.921 79.64 731.161 78.51 731.161 77.35C731.161 76.11 730.911 74.95 730.411 73.87C729.911 72.79 729.191 71.92 728.251 71.26C727.331 70.58 726.231 70.24 724.951 70.24C723.611 70.24 722.481 70.59 721.561 71.29C720.641 71.99 719.941 72.89 719.461 73.99C718.981 75.07 718.741 76.19 718.741 77.35ZM751.647 74.32V88H747.507V66.7H750.807L761.817 80.74V66.73H765.957V88H762.507L751.647 74.32Z" fill="#DFA86A"/>
<path d="M408.227 68.1818L386.75 67.1023H413V65H383.341V69.4318V72.9545C383.341 73.0114 382.489 67.7841 382.261 66.3068H379.932V70.1705V73.6932C379.932 73.75 378.909 67.5 378.852 66.7045C372.943 66.7045 363 66.7045 363 66.7045C364.08 67.6136 370.045 72.7273 374.307 74.8295C376.409 75.8523 379.023 75.9091 381.352 75.9659C382.545 76.0227 383.739 76.0795 384.648 76.9886C385.955 78.2386 386.239 80.2273 385.102 81.7045C384.023 83.1818 380.955 83.5227 380.955 83.5227L378.341 86.5909V90.2273H384.193L384.364 86.6477L389.42 83.0682C388.909 83.5227 387.659 84.6591 385.898 87.4432C385.5 88.0682 385.159 88.75 384.932 89.4318C386.182 88.3523 388.795 87.6136 391.864 87.6136C394.875 87.6136 397.489 88.3523 398.739 89.4318C398.511 88.75 398.17 88.0682 397.773 87.4432C395.955 84.6591 394.761 83.5227 394.25 83.0682L399.307 86.6477L399.477 90.2273H404.932V86.5909L402.375 83.4659C402.375 83.4659 398.568 83.2386 397.602 81.6477C394.648 77.2159 398.682 70.2841 408.227 68.1818Z" fill="#FAF4F3"/>
</g>
<rect x="958" y="149.344" width="86.1224" height="86.1224" rx="15" transform="rotate(-45 958 149.344)" stroke="#935FA9" stroke-width="4"/>
<rect x="1034" y="220.257" width="89.9866" height="89.9866" rx="15" transform="rotate(-36.4083 1034 220.257)" stroke="#F9EA4E" stroke-width="4"/>
<rect x="971.534" y="289.117" width="58.9647" height="60.5322" rx="15" transform="rotate(-71.6842 971.534 289.117)" stroke="#4DF0A2" stroke-width="4"/>
<rect x="1102.19" y="345.493" width="51.3199" height="51.3199" rx="15" transform="rotate(-71.6842 1102.19 345.493)" stroke="#26303D" stroke-width="4"/>
<rect x="953.641" y="422.272" width="121.528" height="121.528" rx="15" transform="rotate(-56.4881 953.641 422.272)" stroke="#935FA9" stroke-width="4"/>
<rect x="997.091" y="-2.19429" width="59.6899" height="59.6899" rx="15" transform="rotate(-31.0708 997.091 -2.19429)" stroke="#F04D4E" stroke-width="4"/>
<rect x="1055.99" y="80.9304" width="112.555" height="112.555" rx="15" transform="rotate(-45 1055.99 80.9304)" stroke="#4DF0A2" stroke-width="4"/>
<rect width="86.1224" height="86.1224" rx="15" transform="matrix(-0.707107 -0.707107 -0.707107 0.707107 171.169 149.344)" stroke="#935FA9" stroke-width="4"/>
<rect width="89.9866" height="89.9866" rx="15" transform="matrix(-0.804807 -0.593536 -0.593536 0.804807 95.1688 220.257)" stroke="#F9EA4E" stroke-width="4"/>
<rect width="58.9647" height="60.5322" rx="15" transform="matrix(-0.314255 -0.949339 -0.949339 0.314255 157.634 289.117)" stroke="#4DF0A2" stroke-width="4"/>
<rect width="51.32" height="51.32" rx="15" transform="matrix(-0.314255 -0.949339 -0.949339 0.314255 26.9834 345.493)" stroke="#26303D" stroke-width="4"/>
<rect width="121.528" height="121.528" rx="15" transform="matrix(-0.55211 -0.833772 -0.833772 0.55211 175.528 422.272)" stroke="#935FA9" stroke-width="4"/>
<rect width="59.6899" height="59.6899" rx="15" transform="matrix(-0.856531 -0.516096 -0.516096 0.856531 132.078 -2.19427)" stroke="#F04D4E" stroke-width="4"/>
<rect width="112.555" height="112.555" rx="15" transform="matrix(-0.707107 -0.707107 -0.707107 0.707107 73.1774 80.9304)" stroke="#4DF0A2" stroke-width="4"/>
</g>
<defs>
<filter id="filter0_d" x="319" y="33" width="494" height="95" filterUnits="userSpaceOnUse" color-interpolation-filters="sRGB">
<feFlood flood-opacity="0" result="BackgroundImageFix"/>
<feColorMatrix in="SourceAlpha" type="matrix" values="0 0 0 0 0 0 0 0 0 0 0 0 0 0 0 0 0 0 127 0"/>
<feOffset dy="3"/>
<feGaussianBlur stdDeviation="12"/>
<feColorMatrix type="matrix" values="0 0 0 0 0.14902 0 0 0 0 0.188235 0 0 0 0 0.239216 0 0 0 0.35 0"/>
<feBlend mode="normal" in2="BackgroundImageFix" result="effect1_dropShadow"/>
<feBlend mode="normal" in="SourceGraphic" in2="effect1_dropShadow" result="shape"/>
</filter>
<clipPath id="clip0">
<rect width="1131" height="414" fill="white"/>
</clipPath>
</defs>
</svg>
